<svg width="314.907470703125px" height="137.63999023437498px" xmlns="http://www.w3.org/2000/svg" viewBox="92.5462646484375 6.180004882812511 314.907470703125 137.63999023437498" style="background: rgba(0, 0, 0, 0);" preserveAspectRatio="xMidYMid">
<defs>
  <filter id="editing-extrusion" x="-100%" y="-100%" width="300%" height="300%">
  <feFlood result="color1" flood-color="rgba(0%,0%,0%,0)"></feFlood>
  <feConvolveMatrix order="1,1" divisor="1" kernelMatrix="1" in="SourceAlpha" result="extrude">
  </feConvolveMatrix><feComposite in="color1" in2="extrude" result="comp-extrude" operator="in">
  </feComposite><feOffset dx="0.5" dy="0.5" in="comp-extrude" result="offset-extrude"></feOffset><feMerge>
  <feMergeNode in="SourceGraphic"></feMergeNode></feMerge></filter></defs>
<g filter="url(#editing-extrusion)">
<g transform="translate(141.67999649047852, 97.78499984741211)"><path d="M56.58 0L42.56 0L42.56-15.87L42.56-15.87Q42.56-18.82 42.78-21.92L42.78-21.92L42.78-21.92Q43.01-25.02 43.26-27.14L43.26-27.14L43.26-27.14Q43.52-29.25 43.58-29.82L43.58-29.82L43.33-29.82L35.20 0L24.13 0L15.94-29.76L15.68-29.76L15.68-29.76Q15.74-29.18 16.03-27.10L16.03-27.10L16.03-27.10Q16.32-25.02 16.58-21.92L16.58-21.92L16.58-21.92Q16.83-18.82 16.83-15.87L16.83-15.87L16.83 0L3.84 0L3.84-44.03L23.81-44.03L30.46-18.62L30.72-18.62L37.31-44.03L56.58-44.03L56.58 0ZM116.99 0L102.98 0L102.98-15.87L102.98-15.87Q102.98-18.82 103.20-21.92L103.20-21.92L103.20-21.92Q103.42-25.02 103.68-27.14L103.68-27.14L103.68-27.14Q103.94-29.25 104-29.82L104-29.82L103.74-29.82L95.62 0L84.54 0L76.35-29.76L76.10-29.76L76.10-29.76Q76.16-29.18 76.45-27.10L76.45-27.10L76.45-27.10Q76.74-25.02 76.99-21.92L76.99-21.92L76.99-21.92Q77.25-18.82 77.25-15.87L77.25-15.87L77.25 0L64.26 0L64.26-44.03L84.22-44.03L90.88-18.62L91.14-18.62L97.73-44.03L116.99-44.03L116.99 0ZM141.38-34.56L141.38-34.56Q149.12-34.56 153.98-31.97L153.98-31.97L153.98-31.97Q158.85-29.38 158.85-23.55L158.85-23.55L158.85-10.37L158.85-10.37Q158.85-9.28 159.36-8.58L159.36-8.58L159.36-8.58Q159.87-7.87 160.90-7.87L160.90-7.87L163.20-7.87L163.20-0.51L163.20-0.51Q163.01-0.38 162.21-0.10L162.21-0.10L162.21-0.10Q161.41 0.19 159.94 0.48L159.94 0.48L159.94 0.48Q158.46 0.77 156.54 0.77L156.54 0.77L156.54 0.77Q152.83 0.77 150.43-0.35L150.43-0.35L150.43-0.35Q148.03-1.47 147.14-3.46L147.14-3.46L147.14-3.46Q144.70-1.54 141.70-0.38L141.70-0.38L141.70-0.38Q138.69 0.77 134.66 0.77L134.66 0.77L134.66 0.77Q122.75 0.77 122.75-8.70L122.75-8.70L122.75-8.70Q122.75-13.63 125.41-16.22L125.41-16.22L125.41-16.22Q128.06-18.82 133.06-19.78L133.06-19.78L133.06-19.78Q138.05-20.74 146.11-20.74L146.11-20.74L146.11-22.40L146.11-22.40Q146.11-24.38 144.74-25.41L144.74-25.41L144.74-25.41Q143.36-26.43 141.18-26.43L141.18-26.43L141.18-26.43Q139.20-26.43 137.76-25.73L137.76-25.73L137.76-25.73Q136.32-25.02 136.32-23.49L136.32-23.49L136.32-23.23L123.78-23.23L123.78-23.23Q123.71-23.55 123.71-24.13L123.71-24.13L123.71-24.13Q123.71-28.93 128.29-31.74L128.29-31.74L128.29-31.74Q132.86-34.56 141.38-34.56L141.38-34.56ZM146.11-14.72L146.11-14.72Q140.67-14.72 138.08-13.54L138.08-13.54L138.08-13.54Q135.49-12.35 135.49-10.37L135.49-10.37L135.49-10.37Q135.49-7.17 139.84-7.17L139.84-7.17L139.84-7.17Q142.34-7.17 144.22-8.51L144.22-8.51L144.22-8.51Q146.11-9.86 146.11-11.84L146.11-11.84L146.11-14.72ZM190.40-44.80L190.40-44.80Q196.74-44.80 201.79-42.88L201.79-42.88L201.79-42.88Q206.85-40.96 209.82-37.22L209.82-37.22L209.82-37.22Q212.80-33.47 212.80-28.10L212.80-28.10L199.30-28.10L199.30-28.10Q199.30-30.85 196.86-32.54L196.86-32.54L196.86-32.54Q194.43-34.24 190.98-34.24L190.98-34.24L190.98-34.24Q185.98-34.24 183.42-31.58L183.42-31.58L183.42-31.58Q180.86-28.93 180.86-24.06L180.86-24.06L180.86-19.97L180.86-19.97Q180.86-15.10 183.42-12.45L183.42-12.45L183.42-12.45Q185.98-9.79 190.98-9.79L190.98-9.79L190.98-9.79Q194.43-9.79 196.86-11.42L196.86-11.42L196.86-11.42Q199.30-13.06 199.30-15.62L199.30-15.62L189.31-15.62L189.31-24.58L212.80-24.58L212.80 0L205.50 0L204.10-4.35L204.10-4.35Q198.08 0.77 188.35 0.77L188.35 0.77L188.35 0.77Q177.41 0.77 171.90-4.96L171.90-4.96L171.90-4.96Q166.40-10.69 166.40-22.02L166.40-22.02L166.40-22.02Q166.40-33.22 172.64-39.01L172.64-39.01L172.64-39.01Q178.88-44.80 190.40-44.80L190.40-44.80Z" fill="#e31235"></path></g></g><style>text {
  font-size: 64px;
  font-family: Arial Black;
  dominant-baseline: central;
  text-anchor: middle;
}</style></svg>