<svg width="282.8200317382812px" height="131.60498046875px" xmlns="http://www.w3.org/2000/svg" viewBox="108.58998413085939 9.197509765625 282.8200317382812 131.60498046875" style="background: rgba(0, 0, 0, 0);" preserveAspectRatio="xMidYMid"><defs><filter id="editing-extrusion" x="-100%" y="-100%" width="300%" height="300%"><feFlood result="color1" flood-color="rgba(0%,0%,0%,0)"></feFlood><feConvolveMatrix order="1,1" divisor="1" kernelMatrix="1" in="SourceAlpha" result="extrude"></feConvolveMatrix><feComposite in="color1" in2="extrude" result="comp-extrude" operator="in"></feComposite><feOffset dx="0.5" dy="0.5" in="comp-extrude" result="offset-extrude"></feOffset><feMerge><feMergeNode in="offset-extrude"></feMergeNode><feMergeNode in="SourceGraphic"></feMergeNode></feMerge></filter></defs><g filter="url(#editing-extrusion)"><g transform="translate(153.02999877929688, 98.56000137329102)"><path d="M27.06-14.56L40.69-46.06L48.31-46.06L48.31 0L40.69 0L40.69-31.69L30.38-6.06L23.75-6.06L13.38-31.69L13.38 0L5.75 0L5.75-46.06L13.38-46.06L27.06-14.56ZM106-19.81L106-1.19L106 0L98.50 0L98.50-19.19L98.50-19.19Q98.50-21.31 98.47-23.22L98.47-23.22L98.47-23.22Q98.44-25.13 98.06-26.63L98.06-26.63L98.06-26.63Q97.69-28.13 96.84-28.97L96.84-28.97L96.84-28.97Q96-29.81 94.25-29.81L94.25-29.81L94.25-29.81Q93.94-29.81 93.16-29.72L93.16-29.72L93.16-29.72Q92.38-29.63 91.31-29.34L91.31-29.34L91.31-29.34Q90.25-29.06 88.97-28.44L88.97-28.44L88.97-28.44Q87.69-27.81 86.44-26.81L86.44-26.81L86.44-26.81Q86.44-24.38 86.47-22.94L86.47-22.94L86.47-22.94Q86.50-21.50 86.50-19.81L86.50-19.81L86.50 0L78.94 0L78.94-19.19L78.94-19.19Q78.94-21.31 78.94-23.22L78.94-23.22L78.94-23.22Q78.94-25.13 78.56-26.63L78.56-26.63L78.56-26.63Q78.19-28.13 77.31-28.97L77.31-28.97L77.31-28.97Q76.44-29.81 74.75-29.81L74.75-29.81L74.75-29.81Q74.19-29.81 73.19-29.66L73.19-29.66L73.19-29.66Q72.19-29.50 71.09-29.13L71.09-29.13L71.09-29.13Q70-28.75 68.91-28.19L68.91-28.19L68.91-28.19Q67.81-27.63 67.06-26.88L67.06-26.88L67.06 0L59.44 0L59.44-35.25L66.25-35.25L67.06-31.63L67.06-31.63Q68.63-33.06 71.09-34.28L71.09-34.28L71.09-34.28Q73.56-35.50 76.25-35.50L76.25-35.50L76.25-35.50Q79.25-35.50 81.25-34.19L81.25-34.19L81.25-34.19Q83.25-32.88 85.25-30.31L85.25-30.31L85.25-30.31Q86.31-31.50 87.63-32.50L87.63-32.50L87.63-32.50Q88.94-33.50 90.34-34.19L90.34-34.19L90.34-34.19Q91.75-34.88 93.13-35.25L93.13-35.25L93.13-35.25Q94.50-35.63 95.75-35.63L95.75-35.63L95.75-35.63Q97.88-35.63 99.75-34.78L99.75-34.78L99.75-34.78Q101.63-33.94 103.03-32.38L103.03-32.38L103.03-32.38Q104.44-30.81 105.22-28.66L105.22-28.66L105.22-28.66Q106-26.50 106-24L106-24L106-19.81ZM142.31-19.06L142.31-10.94L142.31-10.44L142.31-10.44Q142.31-9.94 142.38-8.97L142.38-8.97L142.38-8.97Q142.44-8 142.63-7L142.63-7L142.63-7Q142.81-6 143.22-5.19L143.22-5.19L143.22-5.19Q143.63-4.38 144.31-4.13L144.31-4.13L142.31 0.06L142.31 0.06Q141.50 0.06 140.59-0.31L140.59-0.31L140.59-0.31Q139.69-0.69 138.84-1.38L138.84-1.38L138.84-1.38Q138-2.06 137.41-2.91L137.41-2.91L137.41-2.91Q136.81-3.75 136.50-4.75L136.50-4.75L136.50-4.75Q136.06-3.69 134.97-2.78L134.97-2.78L134.97-2.78Q133.88-1.88 132.50-1.16L132.50-1.16L132.50-1.16Q131.13-0.44 129.53-0.06L129.53-0.06L129.53-0.06Q127.94 0.31 126.56 0.31L126.56 0.31L126.56 0.31Q124.44 0.31 122.47-0.25L122.47-0.25L122.47-0.25Q120.50-0.81 119-2.06L119-2.06L119-2.06Q117.50-3.31 116.66-5.38L116.66-5.38L116.66-5.38Q115.81-7.44 115.81-10.44L115.81-10.44L115.81-10.44Q115.81-13.31 117.03-15.41L117.03-15.41L117.03-15.41Q118.25-17.50 120.16-18.84L120.16-18.84L120.16-18.84Q122.06-20.19 124.50-20.84L124.50-20.84L124.50-20.84Q126.94-21.50 129.44-21.50L129.44-21.50L134.75-21.50L134.75-21.50Q134.75-24.56 134.44-26.38L134.44-26.38L134.44-26.38Q134.13-28.19 133.38-29.03L133.38-29.03L133.38-29.03Q132.63-29.88 131.53-30.09L131.53-30.09L131.53-30.09Q130.44-30.31 128.94-30.31L128.94-30.31L128.94-30.31Q127.56-30.31 126.34-29.97L126.34-29.97L126.34-29.97Q125.13-29.63 124.09-29.16L124.09-29.16L124.09-29.16Q123.06-28.69 122.28-28.13L122.28-28.13L122.28-28.13Q121.50-27.56 121.13-27.25L121.13-27.25L118.31-31.56L118.31-31.56Q118.94-32.25 120.19-32.97L120.19-32.97L120.19-32.97Q121.44-33.69 123.06-34.25L123.06-34.25L123.06-34.25Q124.69-34.81 126.59-35.16L126.59-35.16L126.59-35.16Q128.50-35.50 130.56-35.50L130.56-35.50L130.56-35.50Q132.44-35.50 134.22-35.13L134.22-35.13L134.22-35.13Q136-34.75 137.47-33.88L137.47-33.88L137.47-33.88Q138.94-33 140.03-31.53L140.03-31.53L140.03-31.53Q141.13-30.06 141.56-27.88L141.56-27.88L141.56-27.88Q142-25.69 142.16-23.47L142.16-23.47L142.16-23.47Q142.31-21.25 142.31-19.06L142.31-19.06ZM134.81-8.44L134.81-17.06L130.81-17.06L130.81-17.06Q129.56-17.06 128.19-16.81L128.19-16.81L128.19-16.81Q126.81-16.56 125.63-15.88L125.63-15.88L125.63-15.88Q124.44-15.19 123.66-13.91L123.66-13.91L123.66-13.91Q122.88-12.63 122.88-10.63L122.88-10.63L122.88-10.63Q122.88-7.50 124.28-6.13L124.28-6.13L124.28-6.13Q125.69-4.75 128.38-4.75L128.38-4.75L128.38-4.75Q130.25-4.75 131.97-5.75L131.97-5.75L131.97-5.75Q133.69-6.75 134.81-8.44L134.81-8.44ZM172.94-23.75L188.19-23.75L188.19-5.94L188.19-5.94Q186.75-4.13 184.97-2.97L184.97-2.97L184.97-2.97Q183.19-1.81 181.22-1.06L181.22-1.06L181.22-1.06Q179.25-0.31 177.16 0L177.16 0L177.16 0Q175.06 0.31 173 0.31L173 0.31L173 0.31Q168.88 0.31 165.41-1.19L165.41-1.19L165.41-1.19Q161.94-2.69 159.34-5.63L159.34-5.63L159.34-5.63Q156.75-8.56 155.28-13L155.28-13L155.28-13Q153.81-17.44 153.81-23.25L153.81-23.25L153.81-23.25Q153.81-29.06 155.28-33.47L155.28-33.47L155.28-33.47Q156.75-37.88 159.34-40.81L159.34-40.81L159.34-40.81Q161.94-43.75 165.44-45.28L165.44-45.28L165.44-45.28Q168.94-46.81 173-46.81L173-46.81L173-46.81Q176.75-46.81 180-45.56L180-45.56L180-45.56Q183.25-44.31 185.81-41.81L185.81-41.81L180.63-37.19L180.63-37.19Q179.13-39 177.19-39.81L177.19-39.81L177.19-39.81Q175.25-40.63 173.19-40.63L173.19-40.63L173.19-40.63Q170.88-40.63 168.78-39.75L168.78-39.75L168.78-39.75Q166.69-38.88 165.03-36.78L165.03-36.78L165.03-36.78Q163.38-34.69 162.44-31.38L162.44-31.38L162.44-31.38Q161.50-28.06 161.44-23.25L161.44-23.25L161.44-23.25Q161.50-18.56 162.41-15.13L162.41-15.13L162.41-15.13Q163.31-11.69 164.91-9.50L164.91-9.50L164.91-9.50Q166.50-7.31 168.53-6.25L168.53-6.25L168.53-6.25Q170.56-5.19 172.81-5.19L172.81-5.19L172.81-5.19Q173.50-5.19 174.66-5.28L174.66-5.28L174.66-5.28Q175.81-5.38 176.97-5.59L176.97-5.59L176.97-5.59Q178.13-5.81 179.19-6.19L179.19-6.19L179.19-6.19Q180.25-6.56 180.75-7.25L180.75-7.25L180.75-18.63L172.94-18.63L172.94-23.75Z" fill="#ccc"></path></g></g><style>text {
  font-size: 64px;
  font-family: Arial Black;
  dominant-baseline: central;
  text-anchor: middle;
}</style></svg>